<svg width="503" height="113" viewBox="0 0 503 113" fill="none" xmlns="http://www.w3.org/2000/svg">
<path d="M13.2188 58.8125L43.0312 69.5938V82.2969L2.53125 65.1406V56.1406L13.2188 58.8125ZM43.0312 50L13.1719 60.9688L2.53125 63.5V54.5L43.0312 37.3438V50ZM81.6094 64.6719H64.2188V53.7031H81.6094C84.2969 53.7031 86.4844 53.2656 88.1719 52.3906C89.8594 51.4844 91.0938 50.2344 91.875 48.6406C92.6562 47.0469 93.0469 45.25 93.0469 43.25C93.0469 41.2188 92.6562 39.3281 91.875 37.5781C91.0938 35.8281 89.8594 34.4219 88.1719 33.3594C86.4844 32.2969 84.2969 31.7656 81.6094 31.7656H69.0938V89H55.0312V20.75H81.6094C86.9531 20.75 91.5312 21.7188 95.3438 23.6562C99.1875 25.5625 102.125 28.2031 104.156 31.5781C106.188 34.9531 107.203 38.8125 107.203 43.1562C107.203 47.5625 106.188 51.375 104.156 54.5938C102.125 57.8125 99.1875 60.2969 95.3438 62.0469C91.5312 63.7969 86.9531 64.6719 81.6094 64.6719ZM129.562 49.3438V89H116.062V38.2812H128.766L129.562 49.3438ZM144.844 37.9531L144.609 50.4688C143.953 50.375 143.156 50.2969 142.219 50.2344C141.312 50.1406 140.484 50.0938 139.734 50.0938C137.828 50.0938 136.172 50.3438 134.766 50.8438C133.391 51.3125 132.234 52.0156 131.297 52.9531C130.391 53.8906 129.703 55.0312 129.234 56.375C128.797 57.7188 128.547 59.25 128.484 60.9688L125.766 60.125C125.766 56.8438 126.094 53.8281 126.75 51.0781C127.406 48.2969 128.359 45.875 129.609 43.8125C130.891 41.75 132.453 40.1562 134.297 39.0312C136.141 37.9062 138.25 37.3438 140.625 37.3438C141.375 37.3438 142.141 37.4062 142.922 37.5312C143.703 37.625 144.344 37.7656 144.844 37.9531ZM147.656 64.1562V63.1719C147.656 59.4531 148.188 56.0312 149.25 52.9062C150.312 49.75 151.859 47.0156 153.891 44.7031C155.922 42.3906 158.422 40.5938 161.391 39.3125C164.359 38 167.766 37.3438 171.609 37.3438C175.453 37.3438 178.875 38 181.875 39.3125C184.875 40.5938 187.391 42.3906 189.422 44.7031C191.484 47.0156 193.047 49.75 194.109 52.9062C195.172 56.0312 195.703 59.4531 195.703 63.1719V64.1562C195.703 67.8438 195.172 71.2656 194.109 74.4219C193.047 77.5469 191.484 80.2812 189.422 82.625C187.391 84.9375 184.891 86.7344 181.922 88.0156C178.953 89.2969 175.547 89.9375 171.703 89.9375C167.859 89.9375 164.438 89.2969 161.438 88.0156C158.469 86.7344 155.953 84.9375 153.891 82.625C151.859 80.2812 150.312 77.5469 149.25 74.4219C148.188 71.2656 147.656 67.8438 147.656 64.1562ZM161.156 63.1719V64.1562C161.156 66.2812 161.344 68.2656 161.719 70.1094C162.094 71.9531 162.688 73.5781 163.5 74.9844C164.344 76.3594 165.438 77.4375 166.781 78.2188C168.125 79 169.766 79.3906 171.703 79.3906C173.578 79.3906 175.188 79 176.531 78.2188C177.875 77.4375 178.953 76.3594 179.766 74.9844C180.578 73.5781 181.172 71.9531 181.547 70.1094C181.953 68.2656 182.156 66.2812 182.156 64.1562V63.1719C182.156 61.1094 181.953 59.1719 181.547 57.3594C181.172 55.5156 180.562 53.8906 179.719 52.4844C178.906 51.0469 177.828 49.9219 176.484 49.1094C175.141 48.2969 173.516 47.8906 171.609 47.8906C169.703 47.8906 168.078 48.2969 166.734 49.1094C165.422 49.9219 164.344 51.0469 163.5 52.4844C162.688 53.8906 162.094 55.5156 161.719 57.3594C161.344 59.1719 161.156 61.1094 161.156 63.1719Z" fill="white"/>
<path d="M241.922 78.875L260.391 93.5L251.531 101.188L233.344 86.5625L241.922 78.875ZM260.859 53.2812V56.5156C260.859 61.7031 260.156 66.3594 258.75 70.4844C257.375 74.6094 255.391 78.125 252.797 81.0312C250.203 83.9062 247.141 86.1094 243.609 87.6406C240.078 89.1719 236.156 89.9375 231.844 89.9375C227.562 89.9375 223.641 89.1719 220.078 87.6406C216.516 86.1094 213.438 83.9062 210.844 81.0312C208.25 78.125 206.234 74.6094 204.797 70.4844C203.391 66.3594 202.688 61.7031 202.688 56.5156V53.2812C202.688 48.0625 203.391 43.4062 204.797 39.3125C206.234 35.1875 208.234 31.6719 210.797 28.7656C213.359 25.8594 216.422 23.6406 219.984 22.1094C223.547 20.5781 227.469 19.8125 231.75 19.8125C236.062 19.8125 239.984 20.5781 243.516 22.1094C247.078 23.6406 250.156 25.8594 252.75 28.7656C255.344 31.6719 257.344 35.1875 258.75 39.3125C260.156 43.4062 260.859 48.0625 260.859 53.2812ZM246.656 56.5156V53.1875C246.656 49.5625 246.312 46.375 245.625 43.625C244.969 40.875 244 38.5625 242.719 36.6875C241.469 34.8125 239.922 33.4062 238.078 32.4688C236.234 31.5 234.125 31.0156 231.75 31.0156C229.375 31.0156 227.266 31.5 225.422 32.4688C223.578 33.4062 222.031 34.8125 220.781 36.6875C219.531 38.5625 218.578 40.875 217.922 43.625C217.266 46.375 216.938 49.5625 216.938 53.1875V56.5156C216.938 60.1094 217.266 63.2969 217.922 66.0781C218.578 68.8281 219.531 71.1562 220.781 73.0625C222.062 74.9375 223.625 76.3594 225.469 77.3281C227.344 78.2969 229.469 78.7812 231.844 78.7812C234.219 78.7812 236.312 78.2969 238.125 77.3281C239.969 76.3594 241.516 74.9375 242.766 73.0625C244.047 71.1562 245.016 68.8281 245.672 66.0781C246.328 63.2969 246.656 60.1094 246.656 56.5156ZM300.188 76.8594V38.2812H313.688V89H300.984L300.188 76.8594ZM301.688 66.4531L305.672 66.3594C305.672 69.7344 305.281 72.875 304.5 75.7812C303.719 78.6562 302.547 81.1562 300.984 83.2812C299.422 85.375 297.453 87.0156 295.078 88.2031C292.703 89.3594 289.906 89.9375 286.688 89.9375C284.219 89.9375 281.938 89.5938 279.844 88.9062C277.781 88.1875 276 87.0781 274.5 85.5781C273.031 84.0469 271.875 82.0938 271.031 79.7188C270.219 77.3125 269.812 74.4219 269.812 71.0469V38.2812H283.312V71.1406C283.312 72.6406 283.484 73.9062 283.828 74.9375C284.203 75.9688 284.719 76.8125 285.375 77.4688C286.031 78.125 286.797 78.5938 287.672 78.875C288.578 79.1562 289.578 79.2969 290.672 79.2969C293.453 79.2969 295.641 78.7344 297.234 77.6094C298.859 76.4844 300 74.9531 300.656 73.0156C301.344 71.0469 301.688 68.8594 301.688 66.4531ZM338.25 38.2812V89H324.703V38.2812H338.25ZM323.859 25.0625C323.859 23.0938 324.547 21.4687 325.922 20.1875C327.297 18.9063 329.141 18.2656 331.453 18.2656C333.734 18.2656 335.562 18.9063 336.938 20.1875C338.344 21.4687 339.047 23.0938 339.047 25.0625C339.047 27.0312 338.344 28.6563 336.938 29.9375C335.562 31.2187 333.734 31.8594 331.453 31.8594C329.141 31.8594 327.297 31.2187 325.922 29.9375C324.547 28.6563 323.859 27.0312 323.859 25.0625ZM389.766 78.4531V89H351.234V78.4531H389.766ZM389.016 46.0625L356.672 89H347.625V80.9844L379.828 38.2812H389.016V46.0625ZM384.234 38.2812V48.875H348.375V38.2812H384.234ZM451.312 20.75L426.281 94.8594H416.25L441.281 20.75H451.312ZM488.156 60.6875L458.109 49.9531V37.3438L498.938 54.5V63.5469L488.156 60.6875ZM458.109 69.6875L488.203 58.7188L498.938 56.1406V65.1406L458.109 82.2969V69.6875Z" fill="#6366F1"/>
</svg>
